# xmcd CD database file
#
# Track frame offsets:
#	182
#	24957
#	43720
#	70150
#	94417
#	128725
#	150247
#	171710
#
# Disc length: 2678 seconds
#
# Revision: 0
# Processed by: cddbd v1.5.1PL0 Copyright (c) Steve Scherf et al.
# Submitted via: CDex 1.51
#
DISCID=630a7408
DTITLE=LMT Connection - some time later
DYEAR=1992
DGENRE=Blues
TTITLE0=The Love I Once Knew
TTITLE1=Love And Things
TTITLE2=Things A Man Need
TTITLE3=Call My Name
TTITLE4=Sometime Later
TTITLE5=You Touched  Me
TTITLE6=You Got The Love
TTITLE7=Time To Play A Blues
EXTD=YEAR: 1992
EXTT0=
EXTT1=
EXTT2=
EXTT3=
EXTT4=
EXTT5=
EXTT6=
EXTT7=
PLAYORDER=
